<?xml version="1.0" standalone="no"?>
<!DOCTYPE svg PUBLIC "-//W3C//DTD SVG 20010904//EN"
 "http://www.w3.org/TR/2001/REC-SVG-20010904/DTD/svg10.dtd">
<svg version="1.0" xmlns="http://www.w3.org/2000/svg"
 width="512.000000pt" height="512.000000pt" viewBox="0 0 512.000000 512.000000"
 preserveAspectRatio="xMidYMid meet">

<g transform="translate(0.000000,512.000000) scale(0.100000,-0.100000)"
fill="#000000" stroke="none">
<path d="M1306 3958 c-60 -16 -130 -91 -145 -156 -11 -43 -10 -60 4 -109 16
-57 23 -65 553 -595 l536 -538 -536 -537 c-530 -531 -537 -539 -553 -596 -24
-84 -8 -145 55 -207 62 -63 123 -79 207 -55 57 16 65 23 596 553 l537 536 538
-536 c530 -530 538 -537 595 -553 84 -24 145 -8 207 55 63 62 79 123 55 207
-16 57 -23 65 -553 596 l-536 537 531 533 c366 365 537 544 548 569 32 77 15
177 -39 236 -55 62 -169 81 -244 43 -20 -11 -102 -85 -182 -166 -80 -81 -320
-318 -533 -527 l-388 -381 -537 535 c-517 516 -539 537 -591 552 -61 18 -70
18 -125 4z"/>
</g>
</svg>
