<svg width="80" height="80" viewBox="0 0 80 80" fill="none" xmlns="http://www.w3.org/2000/svg">
<rect width="80" height="80" rx="8" fill="#E9ECEC"/>
<path d="M48.28 27.2002H30.92C29.9334 27.2002 28.9872 27.5921 28.2896 28.2898C27.5919 28.9874 27.2 29.9336 27.2 30.9202V48.2802C27.2 49.2668 27.5919 50.213 28.2896 50.9106C28.9872 51.6083 29.9334 52.0002 30.92 52.0002H48.28C49.2666 52.0002 50.2128 51.6083 50.9105 50.9106C51.6081 50.213 52 49.2668 52 48.2802V30.9202C52 29.9336 51.6081 28.9874 50.9105 28.2898C50.2128 27.5921 49.2666 27.2002 48.28 27.2002ZM37.12 33.4002C37.6105 33.4002 38.09 33.5456 38.4978 33.8182C38.9057 34.0907 39.2235 34.478 39.4112 34.9311C39.5989 35.3843 39.6481 35.8829 39.5524 36.364C39.4567 36.8451 39.2205 37.287 38.8736 37.6338C38.5268 37.9807 38.0849 38.2169 37.6038 38.3125C37.1228 38.4082 36.6241 38.3591 36.171 38.1714C35.7178 37.9837 35.3305 37.6658 35.058 37.258C34.7855 36.8502 34.64 36.3707 34.64 35.8802C34.64 35.2225 34.9013 34.5917 35.3664 34.1266C35.8315 33.6615 36.4623 33.4002 37.12 33.4002ZM34.0076 49.5202H30.92C30.6575 49.5157 30.4033 49.4281 30.1938 49.2698C29.9844 49.1116 29.8305 48.891 29.7544 48.6398L33.586 44.0394C33.7095 43.9013 33.8604 43.7903 34.029 43.7134C34.1976 43.6366 34.3803 43.5956 34.5656 43.593C34.7539 43.5968 34.9389 43.6434 35.1065 43.7294C35.274 43.8153 35.4198 43.9383 35.5328 44.089L36.7728 45.7382L34.0076 49.5202ZM49.52 48.2802C49.52 48.6091 49.3894 48.9245 49.1568 49.157C48.9243 49.3896 48.6089 49.5202 48.28 49.5202H37.12L43.9028 40.1954C44.008 40.0503 44.1434 39.9297 44.2996 39.8419C44.4559 39.7541 44.6294 39.7013 44.808 39.687C44.9876 39.6721 45.1683 39.6966 45.3375 39.7587C45.5067 39.8208 45.6603 39.9191 45.7876 40.0466L49.52 43.8286V48.2802Z" fill="#B7B9BE"/>
</svg>
