<?xml version="1.0" standalone="no"?>
<!DOCTYPE svg PUBLIC "-//W3C//DTD SVG 20010904//EN"
 "http://www.w3.org/TR/2001/REC-SVG-20010904/DTD/svg10.dtd">
<svg version="1.0" xmlns="http://www.w3.org/2000/svg"
 width="316.000000pt" height="316.000000pt" viewBox="0 0 316.000000 316.000000"
 preserveAspectRatio="xMidYMid meet">

<g transform="translate(0.000000,316.000000) scale(0.100000,-0.100000)"
fill="#000000" stroke="none">
<path d="M1577 3153 c-5 -4 -34 -8 -65 -9 -110 -4 -218 -18 -304 -39 -30 -8
-38 -25 -13 -25 9 0 34 -12 57 -26 39 -25 41 -27 23 -40 -10 -8 -26 -14 -35
-14 -22 0 -120 50 -120 61 0 4 12 15 28 24 26 15 26 16 2 9 -14 -3 -32 -12
-40 -18 -8 -7 -28 -13 -45 -15 -16 -1 -42 -11 -57 -22 -15 -10 -38 -19 -51
-19 -13 0 -38 -11 -57 -25 -19 -14 -42 -25 -52 -25 -11 0 -29 -11 -42 -25 -13
-14 -30 -25 -39 -25 -8 0 -34 -16 -57 -35 -23 -19 -48 -35 -56 -35 -7 0 -23
-13 -35 -30 -12 -16 -35 -34 -51 -39 -15 -5 -33 -20 -38 -33 -6 -13 -24 -31
-41 -40 -16 -9 -34 -28 -40 -41 -6 -14 -23 -31 -37 -38 -14 -8 -31 -28 -39
-46 -7 -18 -22 -37 -34 -43 -11 -7 -27 -28 -36 -48 -8 -19 -25 -44 -38 -54
-12 -10 -26 -30 -30 -45 -3 -15 -17 -40 -31 -56 -13 -16 -24 -39 -24 -51 0
-13 -9 -31 -20 -41 -11 -10 -23 -34 -26 -54 -4 -19 -15 -49 -26 -66 -10 -16
-18 -42 -18 -56 0 -14 -7 -34 -15 -45 -8 -10 -15 -34 -15 -52 0 -18 -5 -43
-11 -54 -6 -12 -13 -42 -16 -67 -2 -25 -6 -71 -9 -101 -19 -191 -18 -257 5
-395 6 -33 14 -84 19 -113 5 -29 14 -58 20 -64 7 -7 12 -27 12 -45 0 -18 9
-50 20 -70 11 -21 20 -47 20 -59 0 -11 8 -29 19 -38 10 -9 21 -34 25 -55 3
-21 15 -46 25 -55 11 -10 23 -31 26 -46 3 -15 17 -38 31 -50 13 -13 24 -30 24
-38 0 -7 14 -27 30 -44 17 -17 37 -45 44 -63 8 -18 23 -36 34 -39 11 -4 25
-20 32 -37 7 -16 26 -37 41 -45 16 -8 35 -27 44 -43 8 -16 23 -32 33 -36 11
-3 33 -21 51 -40 17 -19 35 -35 40 -35 5 0 28 -16 51 -35 23 -19 49 -35 57
-35 8 0 24 -11 34 -25 11 -13 35 -27 54 -31 19 -3 35 -9 35 -13 0 -10 56 -41
74 -41 9 0 29 -9 44 -20 15 -11 42 -22 59 -24 18 -3 43 -12 55 -20 12 -9 35
-16 51 -16 15 0 41 -7 57 -15 16 -9 42 -14 57 -13 16 1 38 -4 50 -10 13 -7 40
-13 60 -13 79 0 163 -8 180 -17 10 -6 26 -7 40 -1 13 5 45 9 71 9 106 0 267
21 284 38 7 7 28 12 48 12 19 0 44 6 55 14 11 7 37 16 59 19 21 3 46 13 55 20
9 8 32 17 52 21 20 3 44 15 53 25 9 10 30 21 46 25 16 3 38 14 49 25 10 10 35
24 55 31 20 6 41 20 46 31 6 10 22 22 35 25 14 3 36 19 49 34 12 15 37 35 55
44 17 10 37 27 43 40 5 13 21 29 35 35 13 6 31 24 41 40 9 16 29 37 44 46 15
9 31 27 34 40 3 13 17 31 30 40 14 9 30 28 37 43 6 15 24 42 39 60 15 18 28
41 28 51 0 9 11 27 24 40 12 12 28 39 35 60 6 21 18 44 26 51 8 7 15 24 15 39
0 14 9 37 20 51 11 14 20 37 20 52 0 15 9 46 21 68 12 22 18 47 15 56 -3 8 -1
25 6 37 19 35 39 190 39 296 0 29 3 61 8 70 5 9 4 26 -1 41 -6 14 -12 48 -13
75 -5 111 -24 232 -43 275 -6 14 -13 41 -17 61 -3 21 -12 42 -20 49 -8 7 -15
27 -15 45 0 19 -8 39 -20 50 -11 10 -23 34 -26 54 -4 20 -17 49 -30 64 -13 16
-24 35 -24 42 0 7 -11 27 -25 43 -14 17 -30 44 -36 61 -6 17 -20 36 -30 42
-10 5 -28 27 -39 49 -11 21 -28 41 -39 45 -10 3 -22 17 -25 31 -4 14 -21 34
-39 44 -18 11 -40 33 -50 49 -9 16 -26 33 -37 36 -10 3 -35 20 -54 38 -62 57
-113 97 -123 97 -6 0 -27 14 -48 30 -21 17 -46 30 -56 30 -9 0 -31 11 -47 25
-17 14 -40 25 -52 25 -12 0 -36 11 -54 25 -18 14 -44 25 -57 25 -14 0 -35 7
-47 16 -12 8 -37 16 -55 16 -17 0 -41 6 -52 13 -11 6 -42 15 -70 19 -27 4 -77
12 -110 17 -33 6 -82 11 -110 13 -27 1 -61 6 -75 10 -14 4 -29 4 -33 -1z m-37
-30 c33 -24 69 -66 63 -75 -8 -14 -48 -8 -78 11 -55 36 -78 58 -71 70 11 17
58 13 86 -6z m130 -19 c56 -50 50 -84 -10 -62 -31 11 -101 78 -94 90 13 21 65
7 104 -28z m72 25 c26 -12 73 -70 73 -90 0 -23 -29 -21 -65 3 -82 57 -89 125
-8 87z m-280 -38 c40 -37 41 -39 21 -50 -25 -13 -70 3 -117 42 -35 29 -28 47
20 47 27 0 45 -9 76 -39z m393 23 c8 -4 30 -27 46 -51 23 -33 28 -48 20 -56
-17 -17 -75 18 -106 64 -14 21 -25 41 -25 44 0 7 45 6 65 -1z m-504 -31 c45
-32 49 -50 15 -59 -25 -6 -106 27 -127 53 -34 41 55 45 112 6z m626 -5 c19
-21 53 -80 53 -93 0 -12 -46 -3 -66 13 -20 16 -64 82 -64 96 0 16 59 4 77 -16z
m95 -19 c19 -10 57 -81 58 -106 0 -21 -38 -15 -60 10 -20 20 -60 89 -60 102 0
9 40 5 62 -6z m-931 -31 c44 -25 47 -33 19 -48 -23 -12 -59 -5 -113 22 -32 16
-36 22 -27 34 18 21 77 17 121 -8z m1033 -9 c27 -21 39 -44 52 -94 5 -20 2
-25 -13 -25 -24 0 -54 32 -81 86 -29 58 -9 73 42 33z m-1135 -29 c37 -17 41
-22 31 -35 -16 -20 -69 -19 -120 1 -44 18 -49 28 -22 43 26 16 62 13 111 -9z
m577 -5 c5 -21 9 -23 26 -14 17 9 24 7 42 -11 15 -16 17 -24 8 -27 -6 -3 -10
-8 -7 -13 3 -4 -10 -6 -28 -4 -17 1 -35 3 -39 3 -5 1 -8 10 -8 22 0 11 -5 17
-10 14 -6 -4 -8 -11 -5 -16 4 -5 -1 -9 -9 -9 -20 0 -20 9 0 31 16 18 2 22 -23
6 -14 -9 -27 9 -19 28 3 9 18 15 35 15 24 0 32 -5 37 -25z m655 -6 c21 -11 36
-40 49 -96 7 -28 5 -33 -11 -33 -34 0 -67 45 -85 115 -7 28 12 33 47 14z
m-730 -19 c13 -10 20 -19 15 -20 -5 0 -5 -6 0 -13 5 -7 1 -4 -8 6 -18 19 -18
18 -18 -9 -1 -33 -25 -71 -35 -55 -3 6 -3 21 1 33 5 16 3 20 -9 15 -12 -4 -14
-2 -10 10 4 11 2 14 -5 9 -15 -9 -15 -1 -2 25 14 24 41 24 71 -1z m-597 -15
c42 -18 45 -31 11 -47 -19 -8 -38 -8 -80 1 -60 14 -73 24 -55 46 16 19 78 19
124 0z m1434 -27 c17 -19 41 -87 42 -120 0 -19 -41 -5 -58 20 -17 23 -42 91
-42 115 0 16 38 6 58 -15z m-1542 -19 c82 -21 41 -66 -50 -55 -28 4 -58 11
-66 17 -13 8 -11 12 9 29 27 23 45 24 107 9z m825 -11 c11 -21 11 -22 -4 -9
-10 7 -17 17 -17 22 0 15 9 10 21 -13z m-56 -9 c4 -11 5 -23 2 -26 -9 -9 -40
14 -43 31 -3 24 33 20 41 -5z m25 17 c0 -3 -4 -8 -10 -11 -5 -3 -10 -1 -10 4
0 6 5 11 10 11 6 0 10 -2 10 -4z m845 -40 c9 -13 19 -47 24 -75 7 -45 6 -51
-10 -51 -26 0 -56 48 -64 103 -7 43 -6 47 14 47 11 0 28 -11 36 -24z m-381
-15 c35 -16 69 -38 75 -49 17 -33 13 -77 -11 -107 -19 -25 -26 -27 -72 -22
-28 2 -59 8 -69 12 -13 6 -20 -1 -33 -31 -9 -22 -17 -40 -19 -42 -4 -5 -55 21
-55 28 0 9 77 195 91 223 13 23 19 22 93 -12z m-1318 -8 c21 -8 17 -21 -11
-39 -20 -13 -38 -15 -82 -10 -65 8 -66 8 -58 28 13 33 91 44 151 21z m362
-100 c58 -109 61 -119 45 -131 -30 -22 -47 -9 -81 58 l-33 65 6 -55 c3 -30 8
-69 11 -87 5 -26 2 -32 -16 -38 -18 -6 -32 3 -74 44 -28 28 -55 51 -59 51 -5
0 8 -29 28 -64 l36 -64 -23 -16 c-12 -9 -26 -16 -29 -16 -4 0 -35 53 -69 117
-60 111 -62 117 -44 130 50 38 51 38 125 -34 58 -55 70 -63 65 -43 -21 101
-28 164 -19 167 6 2 19 10 29 18 10 8 24 15 30 15 6 0 38 -53 72 -117z m427
43 c-4 -22 -11 -45 -16 -50 -5 -6 -9 -21 -8 -35 0 -26 0 -26 9 -3 6 14 18 22
34 22 31 0 41 -27 19 -54 -10 -12 -19 -23 -20 -25 -2 -3 -10 4 -18 15 -9 12
-14 14 -15 6 0 -9 -11 -12 -32 -10 -31 3 -33 5 -32 43 1 21 7 41 13 43 6 2 11
23 11 46 0 51 3 55 36 48 24 -4 25 -7 19 -46z m79 28 c3 -9 6 -29 6 -45 0 -16
5 -29 13 -29 8 0 7 -3 -3 -10 -11 -7 -18 -3 -27 13 -10 19 -12 19 -13 4 0 -10
-4 -16 -9 -13 -10 7 -22 76 -15 88 9 14 42 9 48 -8z m910 -7 c16 -16 26 -41
31 -76 8 -60 4 -68 -29 -53 -24 11 -46 72 -46 126 0 32 14 33 44 3z m-1876
-23 c32 -9 27 -33 -12 -49 -34 -14 -136 -11 -136 5 0 9 31 36 50 43 21 8 70 8
98 1z m1972 -64 c13 -23 13 -130 1 -130 -5 0 -19 12 -30 26 -16 20 -21 41 -21
86 0 55 1 58 20 48 11 -6 24 -19 30 -30z m-2033 -14 c4 -4 -3 -16 -15 -28 -17
-17 -37 -23 -87 -26 -36 -2 -65 0 -65 5 0 13 22 39 45 52 20 12 110 10 122 -3z
m1035 1 c7 -8 19 -12 26 -9 29 9 9 -20 -23 -34 -47 -19 -62 -18 -41 5 9 10 14
25 10 35 -7 19 9 21 28 3z m728 -12 c71 -37 81 -114 25 -188 -43 -56 -61 -67
-115 -67 -34 0 -48 6 -76 34 -46 46 -47 95 -1 162 48 72 103 92 167 59z m339
-41 c22 -28 29 -106 12 -133 -8 -13 -12 -13 -26 -1 -10 8 -21 25 -26 38 -10
27 -1 122 12 122 4 0 17 -12 28 -26z m-2179 -29 c0 -26 -60 -55 -112 -55 -56
0 -63 17 -22 49 34 26 134 31 134 6z m257 -81 c65 -36 120 -68 122 -70 3 -3
-5 -14 -17 -26 -19 -20 -24 -20 -47 -8 -23 12 -28 11 -54 -14 -26 -25 -28 -32
-19 -52 9 -19 8 -28 -7 -44 -10 -11 -21 -20 -25 -20 -4 0 -33 56 -65 125 l-58
125 23 25 c13 14 25 25 26 25 1 0 56 -30 121 -66z m2001 12 c10 -19 12 -45 7
-82 -7 -58 -13 -64 -38 -36 -17 19 -22 50 -19 115 2 31 6 38 19 35 10 -2 24
-16 31 -32z m-1200 -14 c4 -27 -22 -30 -37 -4 -9 14 -10 15 -11 1 0 -12 -11
-15 -56 -15 -31 1 -58 -2 -61 -7 -9 -14 -31 13 -26 33 4 15 14 19 60 19 30 0
57 2 59 4 3 2 19 1 37 -2 23 -5 33 -13 35 -29z m160 6 c4 -34 -25 -46 -38 -15
-7 17 -9 18 -9 5 -1 -10 -8 -18 -16 -18 -8 0 -16 8 -16 18 -1 16 -2 16 -6 0
-2 -10 -14 -18 -25 -18 -14 0 -18 5 -14 16 4 9 2 13 -5 8 -7 -4 -10 -1 -7 7 3
9 21 14 51 14 25 1 50 4 54 8 13 13 28 1 31 -25z m-438 -8 c0 -19 5 -29 13
-27 13 2 13 -6 -1 -75 -11 -57 -29 -83 -47 -68 -6 5 -15 7 -18 3 -4 -3 1 -11
10 -18 12 -9 14 -21 9 -58 -4 -26 -11 -49 -16 -52 -5 -3 -2 -18 6 -33 7 -15
14 -46 14 -69 0 -31 4 -43 15 -43 8 0 25 -16 37 -36 37 -57 206 -142 224 -112
4 6 10 6 16 0 28 -28 200 53 231 108 9 18 26 34 36 37 15 4 20 17 23 66 3 33
9 62 15 64 8 3 7 13 -3 31 -19 36 -18 91 1 98 8 4 12 10 9 16 -4 5 -11 5 -19
-2 -18 -15 -36 10 -47 68 -14 70 -14 77 1 74 10 -2 12 5 8 28 -8 37 13 41 40
7 10 -13 26 -26 36 -30 10 -4 23 -20 28 -36 6 -16 17 -32 25 -35 8 -3 14 -19
14 -41 0 -21 4 -34 10 -30 5 3 12 -4 15 -17 7 -27 0 -141 -9 -156 -3 -6 -2
-13 3 -16 11 -7 3 -43 -16 -71 -7 -11 -13 -27 -13 -36 0 -9 -9 -24 -20 -34
-11 -10 -20 -26 -20 -36 0 -23 -46 -59 -76 -59 -14 0 -24 -6 -24 -14 0 -8 -10
-22 -22 -31 -13 -8 -23 -21 -23 -28 0 -8 -20 -11 -70 -10 -89 3 -181 3 -270 0
-50 -1 -70 2 -70 10 0 7 -10 20 -22 28 -13 9 -23 23 -23 31 0 8 -10 14 -24 14
-30 0 -76 36 -76 59 0 10 -9 26 -20 36 -11 10 -20 23 -20 29 0 6 -7 24 -15 40
-9 16 -15 43 -15 60 0 17 -2 60 -5 96 -6 72 0 114 15 105 6 -4 10 9 10 30 0
22 6 38 14 41 8 3 19 19 25 35 5 16 18 32 28 36 10 4 26 17 36 30 25 31 37 29
37 -7z m-850 10 c0 -26 -49 -58 -99 -65 -29 -4 -55 -4 -59 -1 -11 12 13 40 49
58 37 20 109 24 109 8z m2058 -122 c-40 -37 -76 -67 -80 -68 -16 0 -7 -24 22
-57 35 -39 36 -46 14 -64 -14 -12 -21 -7 -55 31 -22 25 -48 56 -58 70 l-19 25
102 87 101 86 23 -21 24 -22 -74 -67z m-1362 67 c17 -13 16 -14 -13 -4 -34 11
-42 19 -20 19 7 0 22 -7 33 -15z m860 6 c-3 -5 -16 -11 -28 -14 -22 -6 -22 -5
-4 8 22 17 40 20 32 6z m839 -35 c11 -25 11 -43 3 -77 -14 -58 -24 -68 -43
-43 -12 14 -15 35 -12 80 7 93 25 106 52 40z m-2474 -24 c-12 -22 -60 -46
-108 -55 -28 -6 -33 -4 -33 13 0 28 38 59 79 66 20 3 41 7 46 9 18 5 27 -13
16 -33z m1244 27 c106 -19 165 -61 165 -116 0 -83 -69 -134 -114 -84 -19 21
-14 41 10 41 9 0 14 -7 12 -17 -4 -24 31 -18 55 9 32 38 14 89 -42 118 -22 11
-42 20 -45 20 -8 0 -26 -126 -27 -186 -1 -117 -56 -194 -138 -194 -39 0 -98
31 -107 55 -4 8 -14 15 -23 15 -21 1 -45 19 -60 48 -23 42 23 109 59 87 18
-11 11 -28 -9 -22 -32 8 -43 -40 -15 -67 19 -20 35 -21 28 -2 -5 14 40 56 61
56 6 0 12 6 12 13 0 23 35 131 54 169 23 44 14 49 -49 23 -59 -25 -104 -75
-67 -75 8 0 15 -7 15 -15 0 -26 -39 -17 -46 10 -12 50 44 96 139 114 60 12 66
12 132 0z m-525 -20 l35 -20 -35 6 c-56 10 -71 16 -65 26 9 13 26 10 65 -12z
m1004 12 c3 -5 -14 -14 -39 -20 -63 -16 -75 -13 -35 9 38 21 66 25 74 11z
m-1051 -67 c43 -14 77 -28 75 -30 -2 -2 -48 2 -101 8 -94 10 -97 12 -81 29 21
23 14 24 107 -7z m1138 7 l23 -19 -74 -6 c-41 -4 -88 -10 -105 -13 -47 -8 -25
5 51 31 85 30 77 30 105 7z m-1642 0 c12 -8 12 -13 -2 -35 -10 -14 -23 -23
-31 -20 -18 7 -46 -22 -46 -47 0 -27 28 -24 79 11 51 34 89 38 122 11 73 -59
-50 -223 -130 -172 -20 13 15 64 40 56 11 -4 26 2 38 14 25 25 26 34 6 51 -11
9 -25 5 -72 -24 -32 -20 -66 -36 -76 -36 -25 0 -67 45 -67 71 0 74 89 151 139
120z m2361 -10 c13 -26 13 -64 -2 -112 -13 -46 -22 -48 -44 -14 -15 22 -15 33
-4 85 13 62 31 76 50 41z m-2580 -19 c0 -24 -25 -47 -70 -65 -66 -27 -80 -29
-80 -13 0 28 47 71 92 82 59 16 58 16 58 -4z m690 -48 c52 -8 96 -17 98 -18 4
-5 -157 -16 -227 -16 l-65 0 29 30 c19 20 35 28 49 25 12 -3 64 -12 116 -21z
m1262 -4 l33 -29 -70 0 c-38 1 -108 4 -155 7 l-85 7 115 21 c63 12 118 22 122
23 4 0 22 -12 40 -29z m447 -17 c15 -32 20 -27 -117 -110 l-94 -57 -20 24
c-10 13 -15 27 -11 31 12 11 217 138 224 139 3 0 11 -12 18 -27z m228 -5 c20
-25 21 -64 3 -108 -35 -89 -77 -31 -46 65 17 56 26 65 43 43z m-2677 -17 c0
-21 -47 -65 -87 -82 -67 -28 -81 -12 -37 40 31 37 124 69 124 42z m815 -42 c5
-6 4 -9 -4 -9 -12 0 -276 -44 -334 -56 -26 -5 -28 -4 -19 13 6 10 21 29 34 43
24 25 26 25 169 22 79 -2 148 -7 154 -13z m1279 -21 c20 -23 34 -43 33 -45 -2
-2 -42 4 -88 12 -46 8 -130 22 -186 32 -57 9 -103 20 -103 24 0 4 64 8 142 8
78 1 144 4 147 6 10 11 21 3 55 -37z m640 -41 c10 -28 -4 -87 -30 -122 l-15
-20 -15 20 c-17 23 -12 67 14 121 18 39 33 39 46 1z m-2784 5 c0 -28 -28 -61
-70 -82 -53 -27 -73 -26 -64 3 10 33 35 58 79 78 51 23 55 23 55 1z m1508 2
c17 -12 22 -24 20 -47 -4 -44 -42 -64 -94 -52 -58 15 -56 35 3 28 38 -4 52 -2
62 11 16 19 8 46 -14 46 -9 0 -13 -4 -10 -10 3 -5 -1 -10 -9 -10 -24 0 -31 22
-11 37 24 17 26 16 53 -3z m-703 -39 c-317 -103 -385 -122 -385 -111 0 7 13
33 30 59 23 37 36 47 57 48 16 0 93 9 173 18 224 28 246 26 125 -14z m1193 15
c103 -12 192 -23 199 -25 12 -4 67 -104 61 -110 -2 -2 -59 15 -128 37 -232 73
-355 116 -337 117 9 1 102 -8 205 -19z m570 -16 c29 -20 52 -66 52 -104 0 -22
-10 -41 -32 -63 l-31 -32 -13 30 c-11 26 -10 33 8 52 20 21 20 24 4 48 -9 14
-24 25 -34 25 -28 0 -119 -46 -125 -65 -10 -25 10 -55 39 -55 17 0 27 -8 35
-27 12 -33 -3 -46 -45 -38 -38 7 -56 22 -73 62 -31 74 -9 122 71 159 60 27
113 30 144 8z m-2388 1 c0 -17 -25 -52 -43 -60 -24 -11 -35 -51 -18 -68 7 -7
25 6 60 42 53 55 87 65 128 36 63 -44 7 -195 -73 -195 -12 0 -25 4 -29 9 -8
13 16 62 27 55 15 -9 48 27 48 53 0 37 -35 28 -83 -22 -53 -55 -93 -61 -126
-19 -49 63 3 174 81 174 16 0 28 -2 28 -5z m685 -52 c-100 -53 -508 -244 -511
-240 -6 6 35 120 47 132 9 10 468 132 499 133 8 1 -7 -11 -35 -25z m1148 -33
c133 -33 248 -64 256 -68 16 -9 64 -142 52 -142 -7 0 -152 68 -501 237 -36 18
-61 32 -57 32 4 1 117 -26 250 -59z m817 -12 c0 -27 -50 -110 -64 -105 -21 7
-18 70 5 120 l23 49 18 -22 c10 -12 18 -31 18 -42z m-2870 29 c0 -29 -23 -55
-71 -85 -44 -27 -59 -28 -59 -3 0 27 36 68 78 91 48 25 52 25 52 -3z m965 -26
c-6 -5 -145 -97 -309 -206 l-299 -196 7 65 c11 113 -8 98 307 228 280 115 312
127 294 109z m1120 -109 l290 -117 12 -80 c7 -44 12 -83 10 -87 -1 -4 -141 85
-312 197 -170 113 -305 205 -300 205 6 -1 141 -53 300 -118z m-1096 45 c-141
-119 -549 -478 -549 -483 0 -5 213 156 300 226 91 73 300 231 300 226 0 -6
-39 -51 -274 -317 -104 -118 -201 -227 -215 -244 -14 -16 102 96 258 250 166
164 273 263 258 240 -61 -99 -112 -162 -172 -212 -117 -97 -210 -239 -255
-393 -18 -59 -22 -99 -22 -195 0 -66 5 -135 11 -152 13 -43 3 -41 -35 5 -143
173 -227 391 -228 596 l-1 108 315 183 c173 101 320 184 325 184 6 0 -2 -10
-16 -22z m1050 -141 c135 -78 273 -157 305 -176 l59 -33 -6 -101 c-7 -117 -41
-262 -86 -360 -36 -81 -127 -220 -167 -256 l-27 -25 7 25 c4 14 10 72 13 130
7 141 -12 234 -77 365 -56 114 -94 164 -195 253 -65 57 -195 226 -183 237 3 3
115 -108 249 -245 257 -264 354 -351 205 -184 -49 54 -150 169 -225 254 -75
85 -152 173 -171 194 -50 56 -18 35 150 -96 240 -187 440 -339 440 -335 0 3
-113 103 -252 223 -292 254 -343 300 -309 284 13 -7 134 -76 270 -154z m851
130 c12 -31 -3 -82 -35 -121 -21 -25 -27 -28 -35 -15 -16 24 -12 52 17 107 29
59 39 64 53 29z m-2920 -5 c0 -41 -103 -128 -120 -101 -16 27 8 67 60 99 43
26 60 27 60 2z m-27 -100 c6 -23 -20 -65 -60 -97 -37 -31 -53 -30 -53 4 1 31
12 47 60 85 42 32 46 33 53 8z m2771 -13 c3 -18 10 -60 16 -92 5 -33 9 -60 7
-61 -1 -2 -12 -6 -24 -9 -24 -8 -25 -6 -38 77 -5 32 -10 37 -32 37 -25 0 -26
-1 -19 -55 6 -54 6 -55 -18 -55 -21 0 -26 6 -31 38 -11 62 -13 65 -43 57 -15
-4 -28 -8 -30 -9 -1 -2 2 -26 8 -55 11 -59 8 -71 -20 -71 -12 0 -20 9 -24 28
-15 77 -27 155 -23 158 3 4 218 41 249 43 12 1 19 -9 22 -31z m201 11 c4 -11
4 -32 0 -47 -8 -33 -64 -104 -76 -96 -19 11 -8 71 21 117 32 52 45 58 55 26z
m-1804 -38 c-11 -21 -27 -41 -36 -45 -18 -7 -15 2 22 52 32 43 38 41 14 -7z
m579 -33 c6 -10 7 -18 2 -18 -14 0 -40 32 -52 65 l-11 30 26 -30 c14 -16 30
-38 35 -47z m-1382 30 c-2 -24 -9 -34 -23 -36 -27 -5 -32 -11 -39 -53 -6 -31
-3 -37 19 -47 25 -12 36 -54 16 -66 -4 -3 -63 20 -130 52 l-121 57 0 37 c0 34
3 38 33 43 17 3 75 14 127 24 129 25 122 26 118 -11z m-378 -68 c0 -32 -25
-72 -64 -103 -30 -23 -37 -25 -42 -12 -11 28 7 70 44 102 43 37 62 41 62 13z
m3000 -28 c0 -28 -9 -46 -34 -74 -37 -42 -53 -47 -58 -20 -6 25 8 60 43 103
36 45 49 43 49 -9z m-1765 -29 c22 -92 117 -173 201 -173 56 0 118 23 153 57
33 32 71 99 71 125 0 10 7 18 15 18 21 0 131 -56 183 -93 41 -29 41 -31 25
-50 -13 -15 -14 -18 -3 -13 8 5 2 -3 -13 -17 -16 -14 -28 -29 -28 -34 0 -4 -4
-26 -10 -47 -15 -56 -4 -134 26 -179 18 -29 77 -71 120 -87 17 -6 57 -10 90
-8 l60 3 8 -54 c9 -57 1 -188 -12 -210 -7 -10 -13 -10 -29 -2 -35 18 -138 13
-181 -9 -84 -43 -130 -138 -116 -245 l6 -54 -43 -12 c-24 -6 -54 -15 -68 -20
-52 -19 -102 -17 -157 7 -55 24 -120 27 -146 6 -6 -5 -30 -15 -52 -22 -34 -10
-53 -9 -130 10 -122 29 -126 32 -114 74 14 52 -7 147 -38 173 -10 8 -12 11 -4
7 9 -5 12 -3 7 4 -4 7 -14 12 -23 12 -9 0 -14 3 -10 6 8 8 -25 44 -35 38 -5
-3 -20 2 -34 11 -13 9 -29 13 -34 10 -6 -3 -10 -1 -10 4 0 6 -16 11 -36 11
-19 0 -33 -4 -30 -8 2 -4 -12 -8 -32 -7 -33 0 -38 3 -43 30 -9 41 -10 185 -3
225 6 27 10 31 28 25 106 -33 178 -20 244 44 89 87 90 226 2 310 -17 15 -30
33 -30 39 0 20 171 121 206 122 7 0 15 -12 19 -27z m235 -13 c0 -10 -6 -20
-12 -23 -21 -7 -38 4 -38 23 0 10 6 20 13 23 20 7 37 -4 37 -23z m-1480 -51
c0 -21 -12 -43 -41 -74 -45 -49 -59 -50 -59 -4 0 21 12 43 41 74 45 49 59 50
59 4z m3016 6 c11 -27 -5 -63 -43 -100 -41 -40 -50 -42 -55 -17 -7 27 10 64
45 100 34 36 45 39 53 17z m-3019 -128 c-7 -50 -71 -122 -87 -97 -6 8 -7 29
-4 45 7 34 72 107 87 98 5 -3 7 -24 4 -46z m3019 18 c10 -25 -16 -73 -56 -105
-21 -17 -41 -30 -44 -30 -3 0 -6 14 -6 30 0 22 12 43 41 75 45 48 56 54 65 30z
m-3008 -111 c3 -33 -53 -127 -72 -121 -6 2 -12 19 -14 38 -2 25 5 45 29 77 35
48 53 50 57 6z m256 -1 c18 24 26 21 26 -8 0 -22 3 -24 19 -15 30 15 34 12 17
-12 -15 -21 -14 -23 6 -34 l21 -12 -21 -6 c-19 -6 -20 -10 -11 -28 10 -19 9
-20 -10 -15 -17 4 -21 1 -21 -20 0 -26 0 -26 -20 -8 -20 18 -21 18 -35 -1 -14
-18 -14 -18 -15 8 0 25 -2 27 -25 18 -24 -9 -36 2 -15 15 17 10 11 25 -12 34
l-23 8 23 7 c23 8 29 21 12 31 -19 12 -10 22 15 17 21 -4 25 0 25 19 1 24 1
24 16 4 14 -19 16 -19 28 -2z m2418 4 c17 15 18 15 18 -10 0 -24 2 -26 26 -16
27 9 27 9 10 -16 -16 -24 -16 -25 11 -31 l28 -7 -27 -9 c-27 -9 -27 -10 -11
-34 16 -24 15 -24 -11 -15 -24 10 -26 8 -26 -16 0 -25 -1 -25 -18 -10 -17 15
-19 15 -35 0 -16 -16 -17 -16 -17 10 0 25 -2 26 -26 16 -26 -9 -27 -9 -11 15
16 24 16 25 -11 34 l-27 10 27 7 c26 7 27 8 11 31 -15 24 -15 24 11 15 24 -10
26 -9 26 16 0 26 1 26 17 10 16 -15 18 -15 35 0z m328 -13 c0 -41 -69 -114
-109 -114 -33 0 3 71 56 112 36 28 53 29 53 2z m-2063 -2 c22 -14 -9 -47 -31
-35 -21 12 -23 23 -4 34 16 11 20 11 35 1z m1071 -23 c4 -19 -19 -31 -38 -19
-18 11 -4 42 17 38 10 -2 19 -10 21 -19z m-1992 -64 c7 -29 -41 -135 -62 -135
-14 0 -24 22 -24 52 0 26 51 108 67 108 7 0 15 -11 19 -25z m2964 -22 c0 -16
-8 -37 -18 -49 -16 -20 -82 -64 -96 -64 -8 0 -8 34 0 55 7 17 92 84 107 85 4
0 7 -12 7 -27z m-2946 -69 c11 -29 6 -63 -16 -109 -24 -50 -32 -54 -48 -26
-16 31 -12 59 16 107 28 47 38 53 48 28z m2920 -42 c-14 -44 -31 -65 -66 -83
-48 -25 -58 -24 -58 4 0 26 26 53 79 85 38 23 53 21 45 -6z m-2884 -103 c0
-31 -20 -94 -38 -119 -2 -3 -10 4 -18 14 -19 27 -18 66 6 121 17 40 23 45 35
35 9 -7 15 -29 15 -51z m2850 0 c0 -36 -20 -60 -67 -80 -57 -24 -63 -24 -63 4
0 27 19 46 75 75 50 27 55 27 55 1z m-2814 -71 c9 -27 7 -48 -9 -106 -13 -46
-24 -49 -47 -9 -13 23 -13 32 4 81 20 59 40 71 52 34z m2774 -36 c0 -31 -29
-60 -77 -76 -59 -20 -63 -20 -63 2 0 23 35 57 80 76 46 20 60 20 60 -2z
m-2720 -101 c0 -44 -18 -111 -29 -111 -31 0 -44 66 -25 130 15 50 16 51 35 34
12 -11 19 -30 19 -53z m425 -47 c77 -87 181 -180 228 -205 12 -7 22 -6 33 6
20 19 37 19 81 -1 41 -20 86 -75 78 -96 -6 -16 10 -24 100 -52 163 -49 357
-67 503 -47 46 6 132 27 190 46 105 35 307 128 327 150 6 6 31 28 57 48 49 39
84 51 55 19 -22 -25 -21 -48 4 -88 26 -42 55 -60 63 -39 9 25 38 18 34 -7 -8
-56 -100 -17 -128 54 -18 44 -17 44 -40 23 -28 -25 -26 -33 20 -99 22 -31 40
-61 40 -66 0 -22 -17 -6 -59 55 -44 65 -54 72 -80 56 -11 -7 -6 -24 28 -86 23
-43 40 -80 37 -82 -2 -3 -14 0 -25 7 -12 6 -43 12 -69 14 -58 3 -65 22 -28 71
25 32 35 61 19 53 -13 -5 -118 -60 -120 -62 -2 -2 10 -39 27 -84 16 -45 25
-84 20 -87 -10 -6 -14 -1 -29 48 -16 49 -45 50 -61 2 -13 -41 -23 -49 -50 -40
-27 9 -25 27 2 23 26 -4 37 25 18 47 -19 23 -89 39 -116 26 -28 -12 -39 -60
-24 -105 9 -29 16 -34 38 -33 18 1 27 -3 27 -13 0 -10 -10 -15 -30 -15 -39 0
-67 50 -63 113 3 39 1 43 -17 38 -11 -3 -26 -6 -33 -6 -10 0 -11 -20 -6 -90 4
-49 4 -90 1 -90 -4 0 -15 17 -26 38 -27 54 -47 69 -54 41 -7 -26 -50 -23 -55
4 -9 45 48 62 87 26 l22 -21 -3 44 c-2 23 -6 42 -10 41 -5 -2 -56 -3 -114 -3
-90 0 -105 -2 -95 -14 7 -8 23 -17 37 -20 22 -6 25 -11 19 -29 -4 -12 -11 -49
-14 -82 -7 -60 -7 -60 -20 -30 -10 24 -11 39 -1 75 9 36 9 45 -2 49 -7 2 -25
17 -39 32 -25 27 -27 28 -43 10 -9 -9 -16 -28 -16 -40 0 -20 4 -22 23 -17 48
15 52 13 52 -28 0 -31 -6 -43 -27 -59 -55 -41 -114 9 -124 103 -6 61 9 52 20
-14 8 -40 45 -86 70 -86 21 0 46 28 46 50 0 17 -4 18 -25 10 -20 -8 -29 -6
-46 11 -20 20 -19 48 3 76 7 8 -7 15 -49 23 -94 19 -204 51 -262 76 -60 27
-71 26 -41 -1 29 -27 26 -63 -7 -77 -16 -7 -30 -13 -32 -14 -1 -2 4 -13 13
-26 9 -12 16 -28 16 -35 0 -21 -18 -15 -25 8 -4 12 -23 39 -42 60 -20 22 -34
42 -31 44 3 3 21 -2 41 -10 40 -17 70 -11 65 14 -2 9 -15 17 -33 19 -41 5 -52
18 -26 31 29 16 26 25 -14 44 l-35 17 -36 -57 c-20 -31 -38 -62 -41 -70 -5
-12 -33 -19 -33 -8 0 2 21 37 46 76 44 68 46 73 29 86 -27 19 -30 18 -68 -35
-20 -26 -45 -56 -58 -67 l-22 -20 7 25 c4 14 10 45 13 68 6 43 5 44 -15 31
-19 -12 -24 -11 -38 3 -14 14 -15 20 -4 32 17 22 57 20 70 -3 5 -11 10 -32 10
-48 l1 -28 30 35 30 35 -33 29 c-18 15 -54 49 -81 74 -51 49 -68 49 -49 0 12
-33 4 -47 -25 -48 -6 0 -28 -19 -47 -42 -20 -23 -39 -39 -42 -35 -12 11 37 76
67 89 23 10 29 18 25 33 -3 11 -6 35 -6 53 0 33 -16 41 -54 26 -27 -10 -20
-44 9 -44 31 0 34 -31 5 -60 -45 -45 -120 -11 -120 53 0 34 51 127 70 127 6 0
-3 -24 -20 -53 -16 -30 -30 -63 -30 -75 0 -27 26 -52 55 -52 36 0 41 20 10 44
-34 28 -27 62 17 80 l30 13 -31 35 c-25 29 -31 48 -15 48 2 0 42 -43 89 -96z
m1740 35 c5 -30 10 -38 18 -30 16 16 30 13 23 -5 -4 -10 14 -33 54 -71 33 -30
60 -59 60 -63 0 -7 -34 -13 -125 -22 -22 -2 -29 1 -27 11 14 65 14 71 -2 77
-28 11 -44 -13 -20 -30 15 -12 17 -17 6 -28 -16 -16 -46 1 -50 30 -3 22 31 52
60 52 24 0 41 -36 34 -71 -5 -27 -4 -28 14 -19 10 5 28 10 39 10 12 0 21 4 21
9 0 11 -94 91 -108 91 -10 0 -22 46 -22 87 0 37 17 18 25 -28z m507 25 c3 -3
4 -14 1 -24 -7 -25 -57 -56 -105 -65 -34 -6 -38 -5 -38 14 0 34 120 98 142 75z
m-2626 -68 c12 -19 14 -38 9 -81 -8 -62 -19 -75 -43 -51 -18 18 -22 79 -9 129
9 33 22 34 43 3z m2574 -41 c0 -20 -51 -65 -75 -66 -17 -1 -17 -2 -2 -6 51
-13 -13 -78 -86 -86 -58 -7 -61 -6 -52 22 7 25 36 42 85 52 31 6 32 7 8 8 -61
2 -20 64 55 81 50 12 67 11 67 -5z m-793 -11 c7 -18 -13 -35 -32 -27 -17 6 -7
43 11 43 8 0 17 -7 21 -16z m-1047 -19 c0 -18 -15 -26 -34 -19 -19 7 -21 31
-3 37 18 6 37 -3 37 -18z m-675 -19 c19 -29 17 -137 -2 -143 -22 -8 -54 58
-47 97 13 78 22 87 49 46z m69 -88 c21 -30 22 -138 2 -138 -27 0 -46 42 -46
102 0 64 16 77 44 36z m2316 -42 c0 -20 -48 -56 -74 -56 -11 0 -28 -5 -36 -10
-12 -8 -11 -10 8 -10 28 0 29 -24 0 -44 -30 -21 -138 -22 -138 -2 0 23 41 46
80 46 29 1 32 2 18 11 -40 23 -14 55 53 68 67 13 89 13 89 -3z m-2245 -36 c26
-28 35 -140 12 -140 -31 0 -57 49 -57 106 0 60 13 69 45 34z m64 -60 c21 -11
37 -48 45 -107 6 -38 4 -43 -14 -43 -30 0 -60 56 -60 113 0 50 2 52 29 37z
m571 -88 c0 -50 33 -102 63 -102 34 0 61 33 53 65 l-7 26 -18 -22 c-21 -26
-51 -20 -51 9 0 27 25 45 49 37 53 -16 67 -72 29 -112 -39 -41 -100 -25 -124
32 -16 40 -19 119 -4 110 6 -3 10 -23 10 -43z m1450 25 c0 -31 -41 -52 -98
-50 -75 3 -89 22 -37 51 29 17 135 16 135 -1z m-1906 -45 c7 -15 17 -46 21
-69 6 -36 4 -43 -10 -43 -28 0 -62 47 -69 96 -3 25 -3 50 0 55 8 14 42 -9 58
-39z m1534 13 c10 -10 -3 -12 -40 -7 -21 2 -38 9 -38 14 0 11 67 5 78 -7z
m270 -31 c30 -9 24 -25 -19 -46 -62 -31 -168 8 -111 41 19 12 94 14 130 5z
m-1722 -29 c19 -29 46 -116 38 -124 -10 -10 -59 24 -71 49 -6 14 -15 42 -18
63 -7 33 -5 37 14 37 11 0 28 -11 37 -25z m68 -37 c24 -10 55 -61 71 -115 5
-18 2 -23 -12 -23 -32 0 -61 28 -77 77 -16 46 -20 73 -11 73 2 0 15 -5 29 -12z
m1576 -3 c16 -10 -14 -42 -47 -48 -30 -6 -123 19 -123 33 0 20 38 31 96 27 34
-3 67 -8 74 -12z m-1466 -56 c26 -21 47 -54 60 -96 6 -19 4 -23 -17 -23 -29 0
-59 32 -80 86 -22 58 -9 69 37 33z m1331 9 c49 -13 52 -25 12 -48 -22 -12 -33
-12 -74 -2 -59 16 -70 26 -53 47 15 18 54 19 115 3z m-89 -53 l39 -16 -24 -20
c-29 -24 -55 -24 -108 1 -47 21 -53 33 -25 50 21 13 65 7 118 -15z m-1130 -4
c19 -15 64 -90 64 -106 0 -12 -47 -3 -66 14 -19 15 -64 90 -64 106 0 12 47 3
66 -14z m100 -27 c22 -15 74 -90 74 -107 0 -11 -39 -8 -61 4 -24 13 -81 98
-73 110 8 14 32 11 60 -7z m916 -6 l51 -22 -23 -18 c-30 -24 -51 -23 -111 8
-42 21 -48 28 -39 40 18 20 63 17 122 -8z m-805 -26 c25 -19 73 -81 73 -94 0
-13 -38 -9 -68 6 -23 12 -72 80 -72 100 0 13 46 5 67 -12z m699 -8 c24 -14 44
-29 44 -34 0 -11 -26 -20 -57 -20 -27 0 -113 45 -113 59 0 30 70 28 126 -5z
m-561 -39 c25 -24 45 -49 45 -55 0 -13 -43 -13 -72 1 -26 12 -81 83 -71 93 18
18 57 3 98 -39z m431 24 c59 -28 71 -44 44 -59 -30 -16 -70 -5 -114 32 -28 23
-34 33 -24 39 21 14 49 10 94 -12z m-358 -3 c38 -20 86 -72 78 -85 -16 -25
-59 -11 -103 34 -58 57 -43 87 25 51z m254 -15 c59 -37 65 -48 35 -62 -29 -13
-80 7 -117 46 -47 50 11 61 82 16z m-99 -17 c26 -20 47 -40 47 -44 0 -12 -46
-21 -67 -14 -21 8 -93 74 -93 86 0 4 15 8 33 8 23 0 48 -11 80 -36z"/>
<path d="M1620 2940 c0 -5 5 -10 11 -10 5 0 7 5 4 10 -3 6 -8 10 -11 10 -2 0
-4 -4 -4 -10z"/>
<path d="M2039 2773 c-13 -35 -6 -51 27 -59 20 -5 31 -2 41 11 20 28 16 43
-17 60 -38 20 -39 20 -51 -12z"/>
<path d="M1518 2739 c-13 -23 -14 -29 -4 -29 8 0 17 12 20 26 10 37 4 38 -16
3z"/>
<path d="M2313 2637 c-34 -18 -73 -77 -73 -109 0 -34 32 -55 64 -40 31 14 78
86 74 113 -5 33 -37 51 -65 36z"/>
<path d="M727 2475 c9 -19 20 -35 24 -35 8 0 33 29 28 33 -19 13 -59 37 -63
37 -3 0 2 -16 11 -35z"/>
<path d="M1220 2396 c0 -9 5 -16 10 -16 6 0 10 4 10 9 0 6 -4 13 -10 16 -5 3
-10 -1 -10 -9z"/>
<path d="M1920 2390 c0 -5 5 -10 10 -10 6 0 10 5 10 10 0 6 -4 10 -10 10 -5 0
-10 -4 -10 -10z"/>
<path d="M1181 2254 c0 -11 3 -14 6 -6 3 7 2 16 -1 19 -3 4 -6 -2 -5 -13z"/>
<path d="M1971 2254 c0 -11 3 -14 6 -6 3 7 2 16 -1 19 -3 4 -6 -2 -5 -13z"/>
<path d="M1210 2218 c0 -9 5 -20 10 -23 13 -8 13 5 0 25 -8 13 -10 13 -10 -2z"/>
<path d="M1937 2213 c-4 -3 -7 -11 -7 -17 0 -6 5 -5 12 2 6 6 9 14 7 17 -3 3
-9 2 -12 -2z"/>
<path d="M1553 2433 c-9 -23 13 -168 35 -233 l18 -54 12 59 c7 32 12 77 12 99
0 23 5 61 11 85 5 24 8 45 7 46 -2 1 -22 5 -46 9 -35 5 -44 3 -49 -11z"/>
<path d="M1507 2344 c-24 -68 -23 -87 6 -78 30 9 29 5 20 69 l-8 58 -18 -49z"/>
<path d="M1491 2233 l-24 -5 26 -21 c14 -12 29 -34 33 -49 5 -24 3 -28 -17
-28 -18 0 -20 3 -11 12 9 9 8 16 -5 30 -19 21 -33 23 -33 6 0 -6 -10 -23 -22
-36 l-23 -24 24 -19 c35 -29 105 -26 137 6 23 23 24 27 10 41 -9 8 -21 33 -27
54 -12 41 -16 42 -68 33z"/>
<path d="M350 1761 l-35 -7 33 -17 c18 -10 37 -15 42 -12 12 7 14 46 3 44 -5
-1 -24 -5 -43 -8z"/>
<path d="M1329 1488 c-2 -26 1 -65 12 -176 8 -68 9 -116 3 -121 -5 -5 -65 -32
-134 -61 -69 -28 -129 -56 -134 -61 -6 -5 19 -21 60 -39 38 -17 71 -34 74 -38
3 -4 12 -8 20 -10 8 -1 37 -12 63 -23 27 -11 50 -19 52 -17 2 2 -3 28 -11 58
-24 90 2 174 72 243 115 112 324 76 394 -67 84 -174 -34 -366 -224 -366 -76 0
-130 24 -185 81 -23 24 -41 37 -41 29 0 -8 -7 -62 -15 -120 -8 -58 -15 -122
-15 -143 l0 -37 41 30 c23 16 46 27 52 23 5 -3 7 -1 4 4 -4 6 19 27 51 48 31
21 67 47 79 58 21 19 24 19 48 3 14 -9 25 -21 25 -26 0 -6 5 -10 12 -10 6 0
37 -19 67 -43 83 -64 122 -90 127 -84 3 2 1 42 -5 88 -5 46 -13 114 -16 150
l-5 66 61 27 c33 14 65 23 71 20 7 -5 8 -2 3 6 -6 10 -4 12 8 7 10 -3 17 -2
17 4 0 6 5 7 10 4 6 -3 10 -2 10 3 0 11 80 43 91 37 4 -3 6 3 5 12 -2 11 -41
34 -112 66 -60 27 -111 53 -112 58 -2 5 -7 7 -11 4 -5 -2 -15 1 -24 8 -15 11
-15 24 2 157 19 145 19 160 -1 160 -6 0 -8 -3 -5 -6 4 -4 -28 -31 -71 -60 -42
-29 -82 -57 -89 -63 -7 -6 -17 -11 -23 -11 -5 0 -10 -3 -10 -8 0 -4 -9 -13
-21 -20 -19 -12 -31 -6 -132 70 -136 102 -137 103 -138 86z m463 -72 c9 -13
-2 -36 -17 -36 -15 0 -24 19 -18 37 5 14 24 13 35 -1z m-389 -10 c7 -18 -1
-26 -25 -26 -11 0 -18 7 -18 20 0 23 35 28 43 6z m-209 -322 c21 -8 21 -33 0
-41 -18 -7 -35 14 -27 34 6 15 6 15 27 7z m801 -22 c6 -18 -2 -32 -20 -32 -15
0 -24 19 -18 36 6 15 31 13 38 -4z m-602 -325 c6 -15 -6 -39 -18 -39 -12 0
-27 31 -20 42 9 14 32 12 38 -3z m400 -9 c6 -19 -3 -38 -18 -38 -18 0 -26 15
-19 34 7 19 31 21 37 4z"/>
<path d="M1545 1202 c-29 -64 -25 -62 -118 -78 l-39 -7 47 -47 47 -48 -7 -66
-7 -67 51 31 c29 16 59 30 67 30 8 0 37 -11 64 -25 56 -29 57 -28 39 56 l-11
51 47 48 46 47 -38 6 c-21 4 -50 7 -65 7 -22 0 -33 10 -61 61 l-35 61 -27 -60z
m65 -147 c0 -8 -6 -15 -12 -18 -21 -7 -38 4 -38 23 0 10 6 20 13 23 15 5 37
-11 37 -28z"/>
<path d="M986 605 c-4 -11 14 -25 64 -50 73 -37 84 -35 49 9 -37 47 -101 71
-113 41z"/>
<path d="M2181 491 l-21 -29 38 -4 c20 -3 38 -4 40 -3 4 4 -27 65 -33 65 -2 0
-13 -13 -24 -29z"/>
<path d="M1982 468 l-32 -11 30 -18 c25 -16 34 -17 50 -6 23 14 23 41 0 43 -8
1 -30 -3 -48 -8z"/>
</g>
</svg>
