<?xml version="1.0" standalone="no"?>
<!DOCTYPE svg PUBLIC "-//W3C//DTD SVG 20010904//EN"
 "http://www.w3.org/TR/2001/REC-SVG-20010904/DTD/svg10.dtd">
<svg version="1.0" xmlns="http://www.w3.org/2000/svg"
 width="512.000000pt" height="512.000000pt" viewBox="0 0 512.000000 512.000000"
 preserveAspectRatio="xMidYMid meet">

<g transform="translate(0.000000,512.000000) scale(0.100000,-0.100000)"
fill="#000000" stroke="none">
<path d="M2436 5105 c-170 -43 -318 -177 -378 -340 -26 -73 -35 -209 -19 -286
6 -30 25 -84 41 -118 17 -35 30 -64 30 -66 0 -1 -21 -10 -47 -20 -74 -28 -202
-94 -268 -138 -309 -208 -512 -508 -597 -885 -21 -94 -22 -122 -27 -872 l-6
-775 -172 -331 c-157 -300 -173 -336 -173 -381 0 -61 29 -110 80 -135 33 -17
133 -18 1666 -18 l1631 0 33 22 c52 36 73 71 74 125 1 43 -16 81 -174 383
l-175 335 -6 775 c-5 750 -6 778 -27 872 -99 440 -358 776 -748 971 -49 24
-106 50 -126 56 -21 7 -38 14 -38 16 0 2 11 25 24 52 82 164 73 372 -23 521
-67 105 -167 183 -282 223 -82 28 -213 34 -293 14z m212 -320 c118 -50 165
-200 97 -310 -38 -62 -114 -105 -185 -105 -71 0 -147 43 -185 105 -69 112 -18
265 105 314 38 15 126 13 168 -4z m-540 -1841 c30 -20 30 -68 0 -88 -16 -11
-46 -16 -101 -16 -50 0 -88 -5 -107 -15 -60 -31 -78 -116 -37 -175 17 -26 37
-38 92 -56 54 -18 79 -32 112 -67 67 -72 83 -179 39 -272 -46 -98 -115 -134
-251 -135 -105 0 -135 13 -135 60 0 45 31 60 123 60 119 0 167 37 167 129 0
59 -36 96 -113 118 -170 47 -232 245 -122 389 44 58 112 84 220 84 66 0 97 -4
113 -16z m565 -13 c57 -27 110 -95 126 -158 6 -23 11 -128 11 -233 0 -215 -7
-255 -55 -321 -92 -128 -298 -128 -390 0 -19 25 -39 65 -44 88 -17 67 -14 419
4 480 19 64 84 134 146 156 59 22 142 17 202 -12z m705 13 c14 -10 22 -26 22
-44 0 -45 -31 -60 -123 -60 -119 0 -167 -37 -167 -129 0 -58 36 -96 110 -117
73 -20 126 -64 156 -128 57 -122 7 -268 -110 -322 -42 -20 -67 -24 -141 -24
-105 0 -135 13 -135 60 0 45 31 60 123 60 50 0 88 5 107 15 60 31 78 116 38
175 -18 26 -38 38 -91 56 -117 37 -176 115 -177 229 0 106 61 199 152 232 51
18 209 16 236 -3z"/>
<path d="M2501 2823 c-66 -35 -72 -61 -69 -295 3 -235 8 -250 86 -278 37 -13
47 -13 84 0 78 28 83 43 86 275 3 176 1 210 -14 241 -31 65 -109 91 -173 57z"/>
<path d="M875 4957 c-668 -361 -966 -1163 -698 -1882 32 -86 70 -164 92 -189
64 -73 191 -61 248 24 35 51 30 106 -17 211 -48 107 -76 203 -95 329 -19 122
-19 207 1 338 55 374 257 673 589 874 113 68 138 102 133 176 -5 59 -27 95
-78 130 -48 32 -102 29 -175 -11z"/>
<path d="M4070 4968 c-51 -35 -73 -71 -78 -130 -5 -74 20 -108 131 -174 331
-198 536 -502 591 -876 20 -131 20 -216 1 -338 -19 -126 -47 -222 -95 -329
-47 -105 -52 -160 -17 -211 57 -85 182 -97 249 -23 20 22 77 144 106 228 58
170 82 318 82 510 0 505 -257 984 -675 1260 -166 109 -230 127 -295 83z"/>
<path d="M1130 4587 c-51 -19 -175 -101 -246 -163 -127 -111 -235 -270 -294
-433 -53 -145 -64 -211 -63 -381 0 -135 3 -168 26 -252 46 -175 102 -279 163
-304 98 -41 204 17 219 120 6 36 1 56 -25 115 -57 131 -73 218 -67 361 6 137
22 204 77 311 66 130 174 246 299 318 87 51 113 86 113 150 0 57 -21 102 -64
135 -42 31 -93 39 -138 23z"/>
<path d="M3905 4593 c-32 -8 -84 -52 -101 -85 -23 -44 -21 -124 3 -157 11 -14
51 -45 89 -68 134 -82 240 -194 304 -322 55 -107 71 -174 77 -311 6 -143 -10
-230 -67 -361 -47 -107 -33 -170 50 -226 61 -42 156 -24 202 38 36 50 76 146
105 257 23 85 26 116 26 257 0 140 -3 172 -25 256 -80 298 -245 522 -494 671
-77 46 -129 61 -169 51z"/>
<path d="M1995 448 c24 -79 95 -188 175 -269 93 -93 183 -146 288 -168 247
-51 498 93 634 364 14 28 29 60 32 73 l7 22 -571 0 -571 0 6 -22z"/>
</g>
</svg>
