<svg xmlns="http://www.w3.org/2000/svg" xmlns:xlink="http://www.w3.org/1999/xlink" version="1.1" x="0px" y="0px" viewBox="0 0 66 82.5" style="enable-background:new 0 0 66 66;" xml:space="preserve"><path d="M39.22,29.57c-2.09-2.09-4.88-3.25-7.85-3.25s-5.76,1.15-7.85,3.25s-3.25,4.88-3.25,7.85c0,2.97,1.15,5.76,3.25,7.85  c2.09,2.09,4.88,3.25,7.85,3.25c2.97,0,5.76-1.15,7.85-3.25C43.54,40.94,43.54,33.9,39.22,29.57z M38.16,44.21  c-1.81,1.81-4.22,2.81-6.79,2.81c-2.57,0-4.98-1-6.79-2.81s-2.81-4.22-2.81-6.79c0-2.57,1-4.98,2.81-6.79s4.22-2.81,6.79-2.81  s4.98,1,6.79,2.81C41.9,34.37,41.9,40.46,38.16,44.21z"/><path d="M57.54,58l-9.24-9.24c-0.86-0.86-2.05-1.27-3.25-1.13l-1.33-1.33c4.28-5.95,3.76-14.3-1.58-19.65  c-5.94-5.94-15.6-5.94-21.54,0c-5.94,5.94-5.94,15.6,0,21.54c2.97,2.97,6.87,4.45,10.77,4.45c3.12,0,6.24-0.97,8.88-2.87l1.33,1.33  c-0.14,1.2,0.27,2.39,1.13,3.24l9.24,9.25c0.77,0.77,1.78,1.16,2.8,1.16c1.01,0,2.03-0.39,2.8-1.16c0.75-0.75,1.16-1.74,1.16-2.8  C58.7,59.74,58.28,58.74,57.54,58z M21.65,47.13c-5.35-5.35-5.35-14.07,0-19.42c2.68-2.68,6.19-4.02,9.71-4.02s7.03,1.34,9.71,4.02  c5.35,5.35,5.35,14.07,0,19.42C35.72,52.48,27.01,52.48,21.65,47.13z M56.48,62.53c-0.96,0.96-2.52,0.96-3.47,0l-9.24-9.24  c-0.59-0.59-0.84-1.45-0.65-2.28c0.06-0.25-0.02-0.51-0.2-0.69l-1.47-1.47c0.01-0.01,0.02-0.03,0.03-0.05  c0.22-0.2,0.46-0.39,0.67-0.61c0.22-0.22,0.41-0.45,0.61-0.68c0.01-0.01,0.03-0.01,0.04-0.02l1.47,1.47  c0.18,0.18,0.44,0.26,0.69,0.2c0.83-0.19,1.68,0.06,2.28,0.65l9.24,9.25c0.46,0.46,0.72,1.08,0.72,1.74  C57.2,61.45,56.94,62.07,56.48,62.53z"/><path d="M35.72,33.06c-0.29-0.29-0.77-0.29-1.06,0l-3.29,3.29l-3.29-3.29c-0.29-0.29-0.77-0.29-1.06,0c-0.29,0.29-0.29,0.77,0,1.06  l3.29,3.3l-3.29,3.29c-0.29,0.29-0.29,0.77,0,1.06c0.15,0.15,0.34,0.22,0.53,0.22s0.38-0.07,0.53-0.22l3.29-3.29l3.29,3.29  c0.15,0.15,0.34,0.22,0.53,0.22s0.38-0.07,0.53-0.22c0.29-0.29,0.29-0.77,0-1.06l-3.29-3.29l3.29-3.3  C36.01,33.83,36.01,33.36,35.72,33.06z"/><path d="M23.92,7.2h18.95c0.41,0,0.75-0.34,0.75-0.75S43.28,5.7,42.87,5.7H23.92c-0.41,0-0.75,0.34-0.75,0.75S23.51,7.2,23.92,7.2z"/><path d="M42.88,9.67H23.91c-0.41,0-0.75,0.34-0.75,0.75s0.34,0.75,0.75,0.75h18.97c0.41,0,0.75-0.34,0.75-0.75  S43.29,9.67,42.88,9.67z"/><path d="M42.88,13.68h-9.96c-0.41,0-0.75,0.34-0.75,0.75s0.34,0.75,0.75,0.75h9.96c0.41,0,0.75-0.34,0.75-0.75  S43.29,13.68,42.88,13.68z"/><path d="M42.88,17.68h-9.96c-0.41,0-0.75,0.34-0.75,0.75c0,0.41,0.34,0.75,0.75,0.75h9.96c0.41,0,0.75-0.34,0.75-0.75  C43.63,18.02,43.29,17.68,42.88,17.68z"/><path d="M45.26,59.34H12.79v-2.48h28.49c0.41,0,0.75-0.34,0.75-0.75s-0.34-0.75-0.75-0.75H8.8V12.98h9.48  c0.41,0,0.75-0.34,0.75-0.75V2.75h28.72v43.4c0,0.41,0.34,0.75,0.75,0.75s0.75-0.34,0.75-0.75V6.73h2.48v43.03  c0,0.41,0.34,0.75,0.75,0.75s0.75-0.34,0.75-0.75V5.98c0-0.41-0.34-0.75-0.75-0.75h-3.23V2c0-0.41-0.34-0.75-0.75-0.75H18.29  c-0.2,0-0.39,0.08-0.53,0.22c0,0,0,0,0,0L7.52,11.7c0,0,0,0,0,0c-0.14,0.14-0.22,0.33-0.22,0.53v43.87c0,0.41,0.34,0.75,0.75,0.75  h3.23v3.23c0,0.41,0.34,0.75,0.75,0.75h33.22c0.41,0,0.75-0.34,0.75-0.75S45.67,59.34,45.26,59.34z M9.86,11.48l7.67-7.67v7.67H9.86  z"/><text x="0" y="81" fill="#000000" font-size="5px" font-weight="bold" font-family="'Helvetica Neue', Helvetica, Arial-Unicode, Arial, Sans-serif"></text><text x="0" y="86" fill="#000000" font-size="5px" font-weight="bold" font-family="'Helvetica Neue', Helvetica, Arial-Unicode, Arial, Sans-serif"></text></svg>