<?xml version="1.0" standalone="no"?><!DOCTYPE svg PUBLIC "-//W3C//DTD SVG 20010904//EN"
    "http://www.w3.org/TR/2001/REC-SVG-20010904/DTD/svg10.dtd">
<svg height="24.000000pt" preserveAspectRatio="xMidYMid meet" version="1.0" viewBox="0 0 512.000000 512.000000"
    width="24.000000pt" xmlns="http://www.w3.org/2000/svg">

    <g fill="#000000" stroke="none"
        transform="translate(0.000000,512.000000) scale(0.100000,-0.100000)">
        <path d="M2393 5106 c-329 -63 -601 -275 -744 -582 -134 -285 -130 -643 11
-924 275 -550 939 -738 1439 -409 216 142 369 357 438 614 24 90 27 117 27
270 0 152 -3 180 -27 267 -52 195 -149 360 -293 497 -130 126 -275 207 -444
251 -109 28 -305 35 -407 16z" />
        <path d="M2266 2788 c2 -12 67 -626 144 -1363 78 -737 144 -1353 148 -1369 4
-17 63 503 153 1360 80 764 142 1390 139 1392 -4 1 -33 -5 -66 -13 -32 -9
-115 -19 -184 -22 -119 -5 -166 0 -311 33 -24 5 -26 3 -23 -18z" />
    </g>
</svg>
